<?xml version="1.0" encoding="UTF-8" standalone="no"?>
<!-- Created with Inkscape (http://www.inkscape.org/) -->

<svg
   width="512"
   height="512"
   viewBox="0 0 512 512"
   version="1.1"
   id="svg5"
   xmlns="http://www.w3.org/2000/svg"
   xmlns:svg="http://www.w3.org/2000/svg">
  <defs
     id="defs2" />
  <g
     id="layer1">
    <path
       style="fill:#121212"
       id="rect215"
       width="512"
       height="512"
       x="0"
       y="0"
       d="m 80,0 h 352 a 80,80 45 0 1 80,80 v 352 a 80,80 135 0 1 -80,80 H 80 A 80,80 45 0 1 0,432 V 80 A 80,80 135 0 1 80,0 Z" />
    <ellipse
       style="fill:#202020;fill-opacity:0"
       id="path2436"
       cx="282.05988"
       cy="321.40518"
       rx="78.69062"
       ry="0.51097804" />
    <g
       id="g2794">
      <path
         id="path61"
         style="fill:#e6e6e6;fill-opacity:1;stroke-width:1.78568"
         d="M 256,32 C 132.28822,32 32,132.28822 32,256 32,379.71178 132.28822,480 256,480 348.83085,479.75798 430.4992,422.53577 463.72815,338.39913 471.02369,319.92661 458.09514,304 438.21289,304 h -10.81836 c -19.88225,0 -41.05843,15.62019 -52.0878,32.10051 C 349.08148,375.28684 304.675,399.87488 256,400 176.471,400 112,335.529 112,256 c 0,-79.529 64.471,-144 144,-144 53.42019,0.009 101.33249,29.41667 126.17581,74.6193 C 391.72716,203.99805 411.52205,220 431.4043,220 h 9.6289 c 19.88225,0 33.68461,-16.07678 27.40964,-34.92048 C 438.43145,94.955484 353.62036,32.023977 256,32 Z" />
      <g
         id="g2788">
        <circle
           style="fill:#e6e6e6;fill-opacity:1;stroke-width:1.4014"
           id="path409-6"
           cx="256"
           cy="256"
           r="64" />
        <path
           style="fill:#e6e6e6"
           id="path2749"
           d="m 332.50988,283.44583 -42.53361,24.55679 V 203.99738 l 42.53361,24.55679 a 31.691719,31.691719 90 0 1 0,54.89166 z"
           transform="matrix(1.1990516,0,0,1.0658236,-59.696503,-16.850839)" />
      </g>
    </g>
  </g>
</svg>
